# xmcd
#
# Track frame offsets: 
#        150
#        10362
#        20190
#        29417
#        42300
#        55870
#        68107
#        77202
#        88432
#        97145
#        108192
#        111400
#        120972
#        134612
#        146550
#        158892
#        172822
#        177240
#        189402
#        201252
#        213375
#        224087
#        236432
#        246992
#        259115
#        269875
#        282132
#
# Disc length: 3899 seconds
#
# Revision: 0
# Processed by: cddbd v1.5.2PL0 Copyright (c) Steve Scherf et al.
# Submitted via: ExactAudioCopy v0.95a5
#
DISCID=a20f391b
DTITLE=Various Artist - Die Familie Zwanzllietner (singt und musiziert)
DYEAR=1900
DGENRE=Country
TTITLE0=Reiner Zwanzllietner - Erbler Polka
TTITLE1=Reiner Zwanzllietner - In da warmen Stubn
TTITLE2=Reiner Zwanzllietner - Hot do Frujoar wieder amol sei Orbat gm
TTITLE2=ocht
TTITLE3=Tobias Reiser sen - Embacher-Boarischer
TTITLE4=Volksweise - Bearb.: Reiner Zwanzllietner - Scheans Dirndl
TTITLE5=Volksweise - Bearb.: Reiner Zwanzllietner - Do druntn im Taler
TTITLE5=l
TTITLE6=Volksweise - Bearb.: Reiner Zwanzllietner - A lustings Lebn
TTITLE7=Tobias Reiser sen - Kleinarler Walzer
TTITLE8=Volksweise - I bin a junga Wildbratschutz
TTITLE9=Volksweise - Bearb.: Reiner Zwanzllietner - Auf ins Revier
TTITLE10=Reiner Zwanzllietner - In Zenz seina
TTITLE11=Volksweise - Bearb.: Reiner Zwanzllietner - Hieflauer Polka
TTITLE12=Reiner Zwanzllietner - Flosserlied
TTITLE13=Volksweise - Bearb.: Reiner Zwanzllietner - A stads Walzerl
TTITLE14=Volksweise - Bearb.: Reiner Zwanzllietner - Im Buxbamawald
TTITLE15=Ernst and Reiner Zwanzllietner - Schoberer.Boarischer
TTITLE16=Volksweise - Da Brigettierer
TTITLE17=Tobias Reiser - Orgelboarischer
TTITLE18=Volksweise - Bearb.: Reiner Zwanzllietner - Aberseer Landler
TTITLE19=Volksweise - Bearb.: Reiner Zwanzllietner - Bin Nochtn spot a
TTITLE19=ussiganga
TTITLE20=Reiner Zwanzllietner - Schonauer Walzer
TTITLE21=Tobias Reiser - Hochzeitspolka
TTITLE22=Volksweise - Bearb.: Reiner Zwanzllietner - Da oane Summa is 
TTITLE22=ma nia vagessn
TTITLE23=Volksweise - Bearb.: Reiner Zwanzllietner - Sepperl Polka
TTITLE24=Volksweise - Da Summa is uma
TTITLE25=Volksweise - Bearb.: Reiner Zwanzllietner - A stade Weis
TTITLE26=A. Mooslechner - Kim eina shcon stad
EXTD=
EXTT0=
EXTT1=
EXTT2=
EXTT3=
EXTT4=
EXTT5=
EXTT6=
EXTT7=
EXTT8=
EXTT9=
EXTT10=
EXTT11=
EXTT12=
EXTT13=
EXTT14=
EXTT15=
EXTT16=
EXTT17=
EXTT18=
EXTT19=
EXTT20=
EXTT21=
EXTT22=
EXTT23=
EXTT24=
EXTT25=
EXTT26=
PLAYORDER=
